<svg width="682" height="682" viewBox="0 0 682 682" fill="none" xmlns="http://www.w3.org/2000/svg">
<path d="M161.999 1.86663C157.066 4.1333 152.666 8.79996 150.799 13.7333C149.999 15.8666 149.333 25.4666 149.333 35.3333V53.0666L110.399 53.6C72.1327 54 71.066 54.1333 61.1994 57.6C33.466 67.3333 14.1327 86.5333 4.39935 114L0.666016 124.667V368V611.333L4.39935 622C14.1327 649.467 33.3327 668.533 61.1994 678.4L71.3327 682H341.333H611.333L621.999 678.267C649.466 668.533 668.533 649.333 678.399 621.467L681.999 611.333V368V124.667L678.399 114.533C668.533 86.6666 649.466 67.4666 621.999 57.7333C611.466 54.1333 611.066 54 572.399 53.6L533.466 53.0666L533.066 33.3333C532.666 11.7333 531.999 9.7333 523.466 3.46663C518.266 -0.400036 505.733 -0.400036 500.533 3.46663C491.999 9.7333 491.333 11.7333 490.933 33.4666L490.533 53.3333H341.333H192.133L191.733 33.4666C191.333 11.8666 190.666 9.7333 182.399 3.59996C177.866 0.266631 167.333 -0.666702 161.999 1.86663ZM149.599 110.533C149.999 126.267 151.199 129.333 159.199 135.2C164.399 139.067 176.933 139.067 182.133 135.2C190.133 129.333 191.333 126.267 191.733 110.533L192.266 96H341.333H490.399L490.933 110.533C491.333 126.267 492.533 129.333 500.533 135.2C505.733 139.067 518.266 139.067 523.466 135.2C531.466 129.333 532.666 126.267 533.066 110.533L533.599 95.8666L569.733 96.2666L605.999 96.6666L613.599 100.4C623.199 105.067 630.933 112.8 635.599 122.4C639.333 130 639.333 130.133 639.733 160.933L640.133 192H341.466H42.666V163.6C42.666 142.533 43.1994 133.467 44.5327 128.667C48.666 115.2 60.266 103.067 73.7327 98.4C79.7327 96.4 85.5994 96.1333 114.933 96H149.066L149.599 110.533ZM639.733 420.267L639.333 606L635.733 613.333C631.066 622.8 622.799 631.067 613.466 635.733L605.999 639.333H341.333H76.666L69.3327 635.733C59.866 631.067 51.5994 622.8 46.9327 613.467L43.3327 606L42.9327 420.267L42.666 234.667H341.333H639.999L639.733 420.267Z" fill="white"/>
</svg>
