<svg width="25" height="25" viewBox="0 0 25 25" fill="none" xmlns="http://www.w3.org/2000/svg">
<path d="M11.8159 0.0292945C10.8003 0.16113 9.82861 0.522459 8.98389 1.08886C8.51514 1.40136 7.65088 2.26562 7.33838 2.73437C6.88916 3.40332 6.58154 4.11133 6.38623 4.93164C6.29346 5.30762 6.28369 5.54199 6.26416 7.3584L6.23975 9.375H5.71729C5.40479 9.375 5.07764 9.4043 4.90674 9.44824C4.06689 9.66797 3.41748 10.3223 3.19775 11.167C3.09033 11.5869 3.09033 22.7881 3.19775 23.208C3.41748 24.0527 4.06689 24.707 4.90674 24.9268C5.16064 24.9902 6.09814 25 12.4995 25C18.9009 25 19.8384 24.9902 20.0923 24.9268C20.9321 24.707 21.5815 24.0527 21.8013 23.208C21.9087 22.7881 21.9087 11.5869 21.8013 11.167C21.5815 10.3223 20.9321 9.66797 20.0923 9.44824C19.9214 9.4043 19.5942 9.375 19.2817 9.375H18.7593L18.7349 7.3584C18.7153 5.54199 18.7056 5.30762 18.6128 4.93164C18.3101 3.67676 17.7827 2.73437 16.8989 1.85058C15.9956 0.947263 15.0435 0.41992 13.8179 0.141599C13.4126 0.0488257 12.2017 -0.0195336 11.8159 0.0292945ZM13.6274 1.7041C14.5161 1.93359 15.1899 2.3291 15.8442 2.99804C16.3081 3.47168 16.6353 3.96972 16.8647 4.5459C17.1431 5.26367 17.1528 5.3418 17.1724 7.43164L17.1919 9.375H12.4995H7.80713L7.82178 7.43164C7.84131 5.63965 7.85107 5.46387 7.94385 5.12207C8.19287 4.22363 8.57861 3.56445 9.22314 2.92969C9.9751 2.18262 10.7026 1.82129 11.9136 1.59179C12.2017 1.53808 13.2661 1.60644 13.6274 1.7041ZM19.9507 11.0645C20.0239 11.1182 20.1313 11.2256 20.1851 11.2988C20.2876 11.4307 20.2876 11.46 20.3022 17.1191C20.3169 23.4131 20.3364 23.0127 19.9897 23.2715L19.8091 23.4131H12.4995H5.18994L5.00928 23.2715C4.66748 23.0127 4.68701 23.3984 4.68701 17.1924C4.68701 13.335 4.70166 11.5332 4.74072 11.4404C4.80908 11.2598 4.97021 11.084 5.15088 11.0059C5.27295 10.9521 6.58154 10.9424 12.5581 10.9521C19.8042 10.9619 19.8188 10.9619 19.9507 11.0645Z" fill="white"/>
</svg>
