<svg width="478" height="425" viewBox="0 0 478 425" fill="none" xmlns="http://www.w3.org/2000/svg">
<path d="M228.401 2.06664C220.535 4.33331 212.535 9.53331 208.268 15.2666C204.135 20.7333 8.26797 359.8 3.86797 369C1.46797 374.067 0.667969 377.933 0.667969 385C0.667969 401.4 9.6013 415.267 24.5346 422.2L30.668 425H239.335H448.001L454.135 422.2C463.468 417.8 470.535 410.733 474.668 401.533C477.868 394.2 478.268 392.067 477.735 383C477.201 374.867 476.268 371.267 472.935 365.133C457.468 336.467 272.535 17.8 268.935 13.6666C260.268 3.39998 242.135 -1.80002 228.401 2.06664ZM252.668 129C257.868 131.667 262.935 138.2 264.668 144.067C266.535 151 266.401 259.267 264.535 266.333C261.735 276.2 250.401 284.333 239.335 284.333C228.268 284.333 216.935 276.2 214.135 266.333C212.268 259.267 212.135 151 214.001 144.067C215.601 138.6 220.668 131.8 225.201 129.4C232.535 125.4 245.335 125.267 252.668 129ZM248.401 321.133C258.801 325.4 265.068 334.333 265.068 345C265.201 355.933 259.468 364.867 249.601 369C240.801 372.733 228.401 370.733 221.601 364.6C214.135 357.933 211.201 342.867 215.735 334.333C222.135 321.933 236.535 316.067 248.401 321.133Z" fill="#DF1111"/>
</svg>
