<svg width="21" height="15" viewBox="0 0 21 15" fill="none" xmlns="http://www.w3.org/2000/svg">
<path fill-rule="evenodd" clip-rule="evenodd" d="M0 0.5H21V1.57736H0V0.5ZM0 2.65469H21V3.73205H0V2.65469ZM0 4.80663H21V5.8867H0V4.80663ZM0 6.96132H21V8.03868H0V6.96132ZM0 9.11601H21V10.1934H0V9.11601ZM0 11.268H21V12.3453H0V11.268ZM0 13.4226H21V14.5H0V13.4226Z" fill="#BD3D44"/>
<path fill-rule="evenodd" clip-rule="evenodd" d="M0 1.57666H21V2.65399H0V1.57666ZM0 3.73132H21V4.80593H0V3.73132ZM0 5.88329H21V6.96062H0V5.88329ZM0 8.03798H21V9.11531H0V8.03798ZM0 10.1927H21V11.27H0V10.1927ZM0 12.3446H21V13.422H0V12.3446Z" fill="white"/>
<path fill-rule="evenodd" clip-rule="evenodd" d="M0 0.5H9.76449V9.26371H0V0.5Z" fill="#192F5D"/>
<path fill-rule="evenodd" clip-rule="evenodd" d="M0.813058 0.875L0.903401 1.22142H1.1895L0.958597 1.43442L1.04645 1.78406L0.813058 1.56791L0.582184 1.78087L0.67001 1.43442L0.436646 1.22142H0.727748L0.813058 0.875ZM2.44174 0.875L2.52956 1.22142H2.81815L2.58476 1.43442L2.67261 1.78406L2.44174 1.56791L2.20835 1.78087L2.29617 1.43442L2.0653 1.22142H2.35139L2.44174 0.875ZM4.0679 0.875L4.15824 1.22145H4.44182L4.21095 1.43445L4.29875 1.78409L4.06538 1.56794L3.83451 1.78091L3.92233 1.43445L3.68894 1.22145H3.97756L4.0679 0.875ZM5.69658 0.875L5.78437 1.22145H6.07299L5.8396 1.43445L5.92994 1.78409L5.69655 1.56794L5.46318 1.78091L5.55353 1.43445L5.32014 1.22145H5.60623L5.69658 0.875ZM7.32274 0.875L7.41308 1.22145H7.69915L7.46828 1.43445L7.5561 1.78409L7.32271 1.56794L7.09184 1.78091L7.17969 1.43445L6.94881 1.22145H7.23488L7.32274 0.875ZM8.95139 0.875L9.03921 1.22145H9.32783L9.09444 1.43445L9.18478 1.78409L8.95139 1.56794L8.718 1.78091L8.80834 1.43445L8.57498 1.22145H8.86356L8.95139 0.875ZM1.62866 1.75226L1.71648 2.09878H2.00507L1.77168 2.31171L1.85701 2.65823L1.63114 2.44523L1.39778 2.6582L1.48057 2.31174L1.25473 2.09874H1.54083L1.62866 1.75226ZM3.25482 1.75226L3.34516 2.09878H3.63123L3.39784 2.31171L3.48821 2.65823L3.25479 2.44523L3.02143 2.6582L3.11177 2.31174L2.87838 2.09874H3.16696L3.25482 1.75226ZM4.88349 1.75226L4.97129 2.09878H5.25991L5.02652 2.31171L5.11434 2.65823L4.88347 2.44523L4.6501 2.6582L4.73793 2.31178L4.50705 2.09878H4.79315L4.88349 1.75226ZM6.50966 1.75226L6.6 2.09878H6.88607L6.65268 2.31171L6.74302 2.65823L6.50963 2.44523L6.27875 2.6582L6.36661 2.31174L6.13322 2.09874H6.42432L6.50966 1.75226ZM8.13831 1.75226L8.22613 2.09878H8.51475L8.28136 2.31171L8.36918 2.65823L8.13831 2.44523L7.90492 2.6582L7.99277 2.31174L7.76189 2.09874H8.04797L8.13831 1.75226ZM0.813058 2.6265L0.903401 2.97932H1.1895L0.958597 3.19229L1.04645 3.53878L0.813058 3.32262L0.582184 3.53878L0.67001 3.1891L0.436646 2.97617H0.727748L0.813058 2.6265ZM2.44174 2.6265L2.52956 2.97607H2.81815L2.58476 3.18903L2.67261 3.53556L2.44174 3.31937L2.20835 3.53552L2.29617 3.18588L2.0653 2.97292H2.35139L2.44174 2.6265ZM4.0679 2.6265L4.15824 2.97614H4.44182L4.21095 3.1891L4.29875 3.53562L4.06538 3.31944L3.83451 3.53559L3.92233 3.18595L3.68894 2.97298H3.97756L4.0679 2.6265ZM5.69658 2.6265L5.78437 2.97614H6.07299L5.8396 3.1891L5.92994 3.53562L5.69655 3.31944L5.46318 3.53559L5.55353 3.18595L5.32014 2.97298H5.60623L5.69658 2.6265ZM7.32274 2.6265L7.41308 2.97614H7.69915L7.46828 3.18907L7.5561 3.53559L7.32271 3.3194L7.09184 3.53556L7.17969 3.18591L6.94881 2.97295H7.23488L7.32274 2.6265ZM8.95139 2.6265L9.03921 2.97614H9.32783L9.09444 3.1891L9.18478 3.53562L8.95139 3.31944L8.718 3.53559L8.80834 3.18595L8.57498 2.97298H8.86356L8.95139 2.6265ZM1.62866 3.50379L1.71648 3.85027H2.00507L1.77168 4.0632L1.85953 4.41288L1.62866 4.19673L1.39526 4.40969L1.48309 4.06324L1.25222 3.85027H1.53834L1.62866 3.50379ZM3.25482 3.50379L3.34516 3.85027H3.63123L3.39784 4.0632L3.48821 4.41288L3.25479 4.19673L3.02143 4.40969L3.11177 4.06324L2.87838 3.85027H3.16696L3.25482 3.50379ZM4.88349 3.50379L4.97129 3.85027H5.25991L5.02652 4.0632L5.11434 4.41288L4.88347 4.19673L4.6501 4.40969L4.73793 4.06324L4.50705 3.85027H4.79315L4.88349 3.50379ZM6.50966 3.50379L6.6 3.85027H6.88607L6.65519 4.0632L6.74302 4.41288L6.50963 4.19673L6.27875 4.40969L6.36661 4.06324L6.13322 3.85027H6.42432L6.50966 3.50379ZM8.13831 3.50379L8.22613 3.85027H8.51475L8.28136 4.0632L8.36918 4.41288L8.13831 4.19673L7.90492 4.40969L7.99277 4.06324L7.76189 3.85027H8.04797L8.13831 3.50379ZM0.813058 4.38111L0.903401 4.7276H1.1895L0.958597 4.94053L1.04645 5.2902L0.813058 5.07405L0.582184 5.28702L0.67001 4.94056L0.436646 4.7276H0.727748L0.813058 4.38111ZM2.44174 4.38111L2.52956 4.7276H2.81815L2.58476 4.94053L2.67261 5.28705L2.44174 5.07405L2.20835 5.28702L2.29617 4.94056L2.0653 4.7276H2.35139L2.44174 4.38111ZM4.0679 4.38111L4.15824 4.7276H4.44182L4.21095 4.94053L4.29875 5.2902L4.06538 5.07405L3.83451 5.28702L3.92233 4.94056L3.68894 4.7276H3.97756L4.0679 4.38111ZM5.69658 4.38111L5.78437 4.7276H6.07299L5.8396 4.94053L5.92994 5.2902L5.69655 5.07405L5.46318 5.28702L5.55353 4.94056L5.32014 4.7276H5.60623L5.69658 4.38111ZM7.32274 4.38111L7.41308 4.7276H7.69915L7.46828 4.94053L7.5561 5.2902L7.32271 5.07405L7.09184 5.28702L7.17969 4.94056L6.94881 4.7276H7.23488L7.32274 4.38111ZM8.95139 4.38111L9.03921 4.7276H9.32783L9.09444 4.94053L9.18478 5.2902L8.95139 5.07405L8.718 5.28702L8.80834 4.94056L8.57498 4.7276H8.86356L8.95139 4.38111ZM1.62866 5.25843L1.71648 5.60492H2.00507L1.77168 5.81785L1.85953 6.16438L1.62866 5.94822L1.39526 6.16438L1.48309 5.8147L1.25222 5.60173H1.53834L1.62866 5.25843ZM3.25482 5.25843L3.34516 5.60492H3.63123L3.39784 5.81785L3.48821 6.16438L3.25479 5.94822L3.02143 6.16438L3.11177 5.8147L2.87838 5.60173H3.16696L3.25482 5.25843ZM4.88349 5.25843L4.97129 5.60492H5.25991L5.02652 5.81785L5.11434 6.16438L4.88347 5.94822L4.6501 6.16438L4.73793 5.8147L4.50705 5.60173H4.79315L4.88349 5.25843ZM6.50966 5.25843L6.6 5.60492H6.88607L6.65519 5.81785L6.74302 6.16438L6.50963 5.94822L6.27875 6.16438L6.36661 5.8147L6.13322 5.60173H6.42432L6.50966 5.25843ZM8.13831 5.25843L8.22613 5.60492H8.51475L8.28136 5.81785L8.36918 6.16438L8.13831 5.94822L7.90492 6.16438L7.99277 5.8147L7.76189 5.60173H8.04797L8.13831 5.25843ZM0.813058 6.13257L0.903401 6.48225H1.1895L0.958597 6.69518L1.04645 7.03851L0.813058 6.82555L0.582184 7.03848L0.67001 6.69202L0.436646 6.47906H0.727748L0.813058 6.13257ZM2.44174 6.13257L2.52956 6.48225H2.81815L2.58476 6.69518L2.67513 7.03851L2.44171 6.82555L2.20835 7.03848L2.29869 6.69202L2.0653 6.47906H2.35139L2.44174 6.13257ZM4.0679 6.13257L4.15824 6.48225H4.44182L4.21095 6.69518L4.29875 7.03851L4.06538 6.82555L3.83451 7.03848L3.92233 6.69202L3.68894 6.47906H3.97756L4.0679 6.13257ZM5.69658 6.13257L5.78437 6.48225H6.07299L5.8396 6.69518L5.92994 7.03851L5.69655 6.82555L5.46318 7.03848L5.55353 6.69202L5.32014 6.47906H5.60623L5.69658 6.13257ZM7.32274 6.13257L7.41308 6.48225H7.69915L7.46828 6.69518L7.5561 7.03851L7.32271 6.82555L7.09184 7.03848L7.17969 6.69202L6.94881 6.47906H7.23488L7.32274 6.13257ZM8.95139 6.13257L9.03921 6.48225H9.32783L9.09444 6.69518L9.18478 7.03851L8.95139 6.82555L8.718 7.03848L8.80834 6.69202L8.57498 6.47906H8.86356L8.95139 6.13257ZM1.62866 7.0099L1.71648 7.35638H2.00507L1.77168 7.56935L1.85953 7.91902L1.62866 7.70287L1.39526 7.9158L1.48309 7.56935L1.25222 7.35638H1.53834L1.62866 7.0099ZM3.25482 7.0099L3.34516 7.35638H3.63123L3.39784 7.56935L3.48821 7.91902L3.25479 7.70287L3.02143 7.9158L3.11177 7.56935L2.87838 7.35638H3.16696L3.25482 7.0099ZM4.88349 7.0099L4.97129 7.35638H5.25991L5.02652 7.56935L5.11434 7.91902L4.88347 7.70287L4.6501 7.9158L4.73793 7.56935L4.50705 7.35638H4.79315L4.88349 7.0099ZM6.50966 7.0099L6.6 7.35638H6.88607L6.65519 7.56935L6.74302 7.91902L6.50963 7.70287L6.27875 7.9158L6.36661 7.56935L6.13322 7.35638H6.42432L6.50966 7.0099ZM8.13831 7.0099L8.22613 7.35638H8.51475L8.28136 7.56935L8.36918 7.91902L8.13831 7.70287L7.90492 7.9158L7.99277 7.56935L7.76189 7.35638H8.04797L8.13831 7.0099ZM0.813058 7.88722L0.903401 8.23371H1.1895L0.958597 8.44667L1.04645 8.79316L0.813058 8.5802L0.582184 8.79313L0.67001 8.44349L0.436646 8.23052H0.727748L0.813058 7.88722ZM2.44174 7.88722L2.52956 8.23371H2.81815L2.58476 8.44667L2.67513 8.79316L2.44171 8.5802L2.20835 8.79313L2.29869 8.44349L2.0653 8.23052H2.35139L2.44174 7.88722ZM4.0679 7.88722L4.15824 8.23371H4.44182L4.21595 8.44667L4.30378 8.79316L4.07039 8.5802L3.83951 8.79313L3.92736 8.44349L3.69397 8.23052H3.98256L4.0679 7.88722ZM5.69658 7.88722L5.78437 8.23371H6.07299L5.8396 8.44667L5.92994 8.79316L5.69655 8.5802L5.46318 8.79313L5.55353 8.44349L5.32014 8.23052H5.60623L5.69658 7.88722ZM7.32274 7.88722L7.41308 8.23371H7.69915L7.46828 8.44667L7.5561 8.79316L7.32271 8.5802L7.09184 8.79313L7.17969 8.44349L6.94881 8.23052H7.23488L7.32274 7.88722ZM8.95139 7.88722L9.03921 8.23371H9.32783L9.09444 8.44667L9.18478 8.79316L8.95139 8.5802L8.718 8.79313L8.80834 8.44349L8.57498 8.23052H8.86356L8.95139 7.88722Z" fill="white"/>
</svg>
