<svg width="25" height="25" viewBox="0 0 25 25" fill="none" xmlns="http://www.w3.org/2000/svg">
<path d="M17.9206 24.9043H7.94697C6.81907 24.9462 5.72021 24.5413 4.88914 23.7776C4.05807 23.0139 3.56193 21.953 3.50854 20.8256V15.4788C3.50854 15.2516 3.59881 15.0336 3.7595 14.8729C3.92019 14.7122 4.13813 14.622 4.36538 14.622C4.59262 14.622 4.81056 14.7122 4.97125 14.8729C5.13194 15.0336 5.22222 15.2516 5.22222 15.4788V20.8256C5.27488 21.4986 5.59017 22.1239 6.1 22.5664C6.60982 23.0089 7.27324 23.2331 7.94697 23.1905H17.9206C18.5943 23.2331 19.2577 23.0089 19.7676 22.5664C20.2774 22.1239 20.5927 21.4986 20.6453 20.8256V15.4788C20.6453 15.2516 20.7356 15.0336 20.8963 14.8729C21.057 14.7122 21.2749 14.622 21.5022 14.622C21.7294 14.622 21.9474 14.7122 22.1081 14.8729C22.2687 15.0336 22.359 15.2516 22.359 15.4788V20.8256C22.3056 21.953 21.8095 23.0139 20.9784 23.7776C20.1473 24.5413 19.0485 24.9462 17.9206 24.9043V24.9043ZM24.6811 13.5166C24.7614 13.4369 24.8251 13.3422 24.8686 13.2378C24.9121 13.1333 24.9345 13.0213 24.9345 12.9082C24.9345 12.7951 24.9121 12.6831 24.8686 12.5787C24.8251 12.4743 24.7614 12.3795 24.6811 12.2999L13.5421 1.16068C13.4625 1.08037 13.3677 1.01663 13.2633 0.973125C13.1589 0.929623 13.0469 0.907227 12.9338 0.907227C12.8207 0.907227 12.7087 0.929623 12.6043 0.973125C12.4998 1.01663 12.4051 1.08037 12.3254 1.16068L1.1865 12.2999C1.02515 12.4612 0.934509 12.68 0.934509 12.9082C0.934509 13.1364 1.02515 13.3553 1.1865 13.5166C1.34784 13.678 1.56668 13.7686 1.79486 13.7686C2.02303 13.7686 2.24187 13.678 2.40321 13.5166L12.9338 2.97723L23.4643 13.5166C23.544 13.5969 23.6388 13.6607 23.7432 13.7042C23.8476 13.7477 23.9596 13.7701 24.0727 13.7701C24.1858 13.7701 24.2978 13.7477 24.4022 13.7042C24.5066 13.6607 24.6014 13.5969 24.6811 13.5166Z" fill="white"/>
</svg>
