<svg width="32" height="32" viewBox="0 0 32 24" fill="none" xmlns="http://www.w3.org/2000/svg">
<g filter="url(#filter0_d_115_9)">
<g clip-path="url(#clip0_115_9)">
<path d="M22 2C24.206 2 26 3.794 26 6V18C26 20.206 24.206 22 22 22H10C7.794 22 6 20.206 6 18V6C6 3.794 7.794 2 10 2H22ZM22 0H10C6.686 0 4 2.686 4 6V18C4 21.314 6.686 24 10 24H22C25.314 24 28 21.314 28 18V6C28 2.686 25.314 0 22 0Z" fill="#999999"/>
<path d="M21 13H11C10.448 13 10 12.552 10 12C10 11.448 10.448 11 11 11H21C21.553 11 22 11.448 22 12C22 12.552 21.553 13 21 13Z" fill="#999999"/>
<path d="M21 8H11C10.448 8 10 7.552 10 7C10 6.448 10.448 6 11 6H21C21.553 6 22 6.448 22 7C22 7.552 21.553 8 21 8Z" fill="#999999"/>
<path d="M21 18H11C10.448 18 10 17.553 10 17C10 16.447 10.448 16 11 16H21C21.553 16 22 16.447 22 17C22 17.553 21.553 18 21 18Z" fill="#999999"/>
</g>
<rect x="4.5" y="0.5" width="23" height="23"  shape-rendering="crispEdges"/>
</g>
<defs>
<filter id="filter0_d_115_9" x="0" y="0" width="32" height="32" filterUnits="userSpaceOnUse" color-interpolation-filters="sRGB">
<feFlood flood-opacity="0" result="BackgroundImageFix"/>
<feColorMatrix in="SourceAlpha" type="matrix" values="0 0 0 0 0 0 0 0 0 0 0 0 0 0 0 0 0 0 127 0" result="hardAlpha"/>
<feOffset dy="4"/>
<feGaussianBlur stdDeviation="2"/>
<feComposite in2="hardAlpha" operator="out"/>
<feColorMatrix type="matrix" values="0 0 0 0 0 0 0 0 0 0 0 0 0 0 0 0 0 0 0.25 0"/>
<feBlend mode="normal" in2="BackgroundImageFix" result="effect1_dropShadow_115_9"/>
<feBlend mode="normal" in="SourceGraphic" in2="effect1_dropShadow_115_9" result="shape"/>
</filter>
<clipPath id="clip0_115_9">
<rect x="4" width="24" height="24" fill="white"/>
</clipPath>
</defs>
</svg>
