<svg width="24" height="24" viewBox="0 0 24 24" fill="none" xmlns="http://www.w3.org/2000/svg">
<path d="M15.3488 24H8.65116C2.58977 24 0 21.4102 0 15.3488V8.65116C0 2.58977 2.58977 0 8.65116 0H15.3488C21.4102 0 24 2.58977 24 8.65116V15.3488C24 21.4102 21.4102 24 15.3488 24ZM8.65116 1.67442C3.50512 1.67442 1.67442 3.50512 1.67442 8.65116V15.3488C1.67442 20.4949 3.50512 22.3256 8.65116 22.3256H15.3488C20.4949 22.3256 22.3256 20.4949 22.3256 15.3488V8.65116C22.3256 3.50512 20.4949 1.67442 15.3488 1.67442H8.65116Z" fill="white"/>
<path d="M6.78692 15.6167C6.60832 15.6167 6.42971 15.5609 6.27343 15.4381C5.90506 15.1591 5.83808 14.6344 6.11715 14.266L8.7739 10.8167C9.09762 10.4037 9.55529 10.1358 10.0799 10.0688C10.5934 10.0019 11.1181 10.147 11.5311 10.4707L13.5739 12.0781C13.652 12.1451 13.7302 12.1451 13.786 12.134C13.8306 12.134 13.9088 12.1116 13.9758 12.0223L16.5544 8.69581C16.8334 8.32744 17.3692 8.26046 17.7265 8.5507C18.0948 8.82977 18.1618 9.35442 17.8716 9.72279L15.293 13.0493C14.9692 13.4623 14.5116 13.7302 13.9869 13.786C13.4623 13.853 12.9488 13.7079 12.5358 13.3842L10.493 11.7767C10.4148 11.7098 10.3255 11.7098 10.2809 11.7209C10.2362 11.7209 10.1581 11.7433 10.0911 11.8326L7.43436 15.2819C7.28925 15.5051 7.04366 15.6167 6.78692 15.6167V15.6167Z" fill="white"/>
</svg>
