<svg width="24" height="24" viewBox="0 0 24 24" fill="none" xmlns="http://www.w3.org/2000/svg">
<path d="M24 12C24 8.81737 22.7357 5.76513 20.4853 3.5147C18.2348 1.26428 15.1826 0 12 0C8.8174 0 5.76515 1.26428 3.51472 3.5147C1.26428 5.76513 4.74244e-08 8.81737 0 12C0.00166654 12.8942 0.0997212 13.7857 0.292465 14.6589C0.313594 14.7686 0.356453 14.8729 0.418517 14.9658C0.480581 15.0586 0.560596 15.1381 0.653851 15.1996C0.747106 15.261 0.851715 15.3032 0.961519 15.3236C1.07132 15.344 1.1841 15.3423 1.29322 15.3185C1.40233 15.2946 1.50557 15.2492 1.59686 15.1849C1.68815 15.1205 1.76565 15.0386 1.82478 14.9438C1.88392 14.8491 1.9235 14.7434 1.94119 14.6332C1.95889 14.5229 1.95434 14.4102 1.92781 14.3017C1.76092 13.5458 1.67597 12.7741 1.67442 12C1.67442 9.95775 2.28 7.96141 3.41459 6.26339C4.54918 4.56536 6.16182 3.24191 8.04857 2.4604C9.93532 1.67888 12.0115 1.4744 14.0144 1.87281C16.0174 2.27123 17.8572 3.25464 19.3013 4.69869C20.7453 6.14275 21.7288 7.98258 22.1272 9.98554C22.5256 11.9885 22.3211 14.0646 21.5396 15.9514C20.7581 17.8381 19.4346 19.4507 17.7366 20.5853C16.0386 21.7199 14.0422 22.3255 12 22.3255C9.55006 22.3356 7.17825 21.4639 5.31795 19.8697L12.5916 12.5916C12.7395 12.4329 12.82 12.223 12.8162 12.0061C12.8124 11.7892 12.7245 11.5822 12.5711 11.4288C12.4177 11.2754 12.2108 11.1876 11.9939 11.1838C11.777 11.1799 11.5671 11.2604 11.4084 11.4083L3.51628 19.297C3.43828 19.3749 3.3764 19.4674 3.33418 19.5692C3.29195 19.671 3.27022 19.7801 3.27022 19.8903C3.27022 20.0006 3.29195 20.1097 3.33418 20.2115C3.3764 20.3133 3.43828 20.4058 3.51628 20.4836C4.62616 21.6036 5.94793 22.4913 7.4045 23.095C8.86108 23.6987 10.4233 24.0063 12 23.9999C15.1815 23.9964 18.2317 22.7309 20.4814 20.4813C22.731 18.2316 23.9965 15.1814 24 12Z" fill="white"/>
</svg>
