<svg width="16" height="16" viewBox="0 0 16 16" fill="none" xmlns="http://www.w3.org/2000/svg">
<path d="M1.49564 0.070576C0.795731 0.280204 0.245801 0.90443 0.0624919 1.69636C0.00833223 1.92462 0 2.6886 0 7.04887C0 10.2678 0.0166645 12.2243 0.0416612 12.3781C0.170811 13.1327 0.674912 13.7803 1.32483 14.0365C1.5498 14.1203 1.76227 14.1576 2.29554 14.1948C3.95783 14.3113 5.18683 14.6514 6.33252 15.3036C6.66579 15.4945 7.04074 15.7089 7.16991 15.7834C7.66985 16.0722 8.34057 16.0722 8.8322 15.7834C9.86538 15.1824 10.3362 14.9355 10.7528 14.7865C11.6735 14.4557 12.5609 14.2741 13.6982 14.1948C14.4648 14.1389 14.7481 14.0598 15.1105 13.7896C15.5313 13.4775 15.8646 12.9231 15.9563 12.3828C16.0146 12.038 16.0146 2.13891 15.9563 1.79884C15.8854 1.37959 15.6938 0.988282 15.4063 0.671509C14.9147 0.126477 14.4481 -0.0458842 13.6232 0.0100167C11.5318 0.140452 10.007 0.592319 8.57804 1.50071C8.26558 1.70567 8.14479 1.75692 7.99896 1.75692C7.85314 1.75692 7.73234 1.70567 7.41988 1.50071C5.97007 0.578343 4.35778 0.107843 2.3122 0.0100167C1.87059 -0.00861696 1.72061 0.000699851 1.49564 0.070576ZM3.35372 1.59853C4.70355 1.78487 5.77841 2.1622 6.73663 2.78643C7.00743 2.96344 7.24906 3.10786 7.27821 3.10786C7.31989 3.10786 7.33239 4.22123 7.33239 8.64669V14.1902L6.82411 13.9153C5.44095 13.184 3.69536 12.7042 2.38302 12.7042C2.19138 12.7042 1.95391 12.6809 1.85392 12.6529C1.63312 12.5924 1.43315 12.3781 1.37482 12.1498C1.34149 12.038 1.33316 10.3843 1.34149 6.97434L1.35399 1.96655L1.45398 1.80816C1.50814 1.72431 1.62895 1.61251 1.72478 1.56127C1.87476 1.48673 1.95391 1.47741 2.37469 1.50071C2.63716 1.51934 3.07877 1.56127 3.35372 1.59853ZM14.2898 1.57058C14.3773 1.62182 14.494 1.72897 14.5481 1.81282L14.6439 1.96655L14.6564 7.02556L14.6648 12.0799L14.569 12.2849C14.4148 12.6064 14.269 12.6669 13.5149 12.7088C11.936 12.7927 10.3653 13.2445 9.03217 13.9899L8.66553 14.1948V8.65137C8.66553 4.2352 8.67803 3.10786 8.71971 3.10786C8.74471 3.10786 8.96549 2.97742 9.20715 2.82369C10.2362 2.15288 11.3027 1.77555 12.69 1.59387C13.7399 1.45878 14.0815 1.45412 14.2898 1.57058Z" fill="#6B7280"/>
</svg>
