<svg width="20" height="24" viewBox="0 0 20 24" fill="none" xmlns="http://www.w3.org/2000/svg">
<path fill-rule="evenodd" clip-rule="evenodd" d="M0 4.78556C0 2.14257 2.13784 0 4.775 0H14.325C16.9621 0 19.1 2.14257 19.1 4.78556V21.603C19.1 23.5493 16.9051 24.6813 15.3248 23.5501L9.55 19.4161L3.77521 23.5501C2.195 24.6813 0 23.5493 0 21.603V4.78556ZM4.775 2.39278C3.45642 2.39278 2.3875 3.46406 2.3875 4.78556V21.603L8.16227 17.469C8.9924 16.8747 10.1076 16.8747 10.9377 17.469L16.7125 21.603V4.78556C16.7125 3.46406 15.6436 2.39278 14.325 2.39278H4.775Z" fill="#999999"/>
</svg>
