<svg width="17" height="24" viewBox="0 0 17 24" fill="none" xmlns="http://www.w3.org/2000/svg">
<path d="M8.43527 0.0102688C10.1432 0.0102688 11.8421 0.0368544 13.55 0.00140621C14.8038 -0.0251799 15.7758 0.400199 16.3936 1.46364C17.0386 2.58026 16.6662 3.58168 15.9757 4.5565C14.3859 6.7986 12.8323 9.06729 11.2062 11.2917C10.8064 11.8411 10.8337 12.2045 11.2243 12.7362C12.8142 14.934 14.3495 17.1761 15.9303 19.3739C16.6571 20.3753 17.0386 21.3944 16.3754 22.5553C15.7577 23.6454 14.7492 24.0087 13.5228 23.9998C10.0342 23.991 6.5547 23.991 3.06612 23.9998C1.85783 24.0087 0.940262 23.5479 0.340661 22.5287C-0.286194 21.4564 0.0226904 20.4816 0.69497 19.5422C2.28482 17.3001 3.82925 15.0226 5.46452 12.8159C5.93693 12.1779 5.88242 11.7879 5.44635 11.1853C3.87467 9.02298 2.36658 6.80746 0.813072 4.6274C0.0953682 3.62599 -0.31345 2.61571 0.358829 1.44592C1.01294 0.320442 2.04861 -0.0251799 3.32049 0.00140621C5.01936 0.0457165 6.72732 0.0102688 8.43527 0.0102688ZM8.36259 10.6093C10.2522 7.92408 12.042 5.37181 13.8862 2.73978C10.1251 2.73978 6.5547 2.73978 2.82991 2.73978C4.69231 5.38067 6.47294 7.91522 8.36259 10.6093ZM2.839 21.2615C6.60013 21.2615 10.1614 21.2615 13.8862 21.2615C12.0238 18.6029 10.2341 16.0594 8.37167 13.392C6.50019 16.0506 4.70139 18.6117 2.839 21.2615Z" fill="white"/>
</svg>
